<?xml version="1.0" standalone="no"?>
<!DOCTYPE svg PUBLIC "-//W3C//DTD SVG 20010904//EN"
 "http://www.w3.org/TR/2001/REC-SVG-20010904/DTD/svg10.dtd">
<svg version="1.0" xmlns="http://www.w3.org/2000/svg"
 width="49.000000pt" height="45.000000pt" viewBox="0 0 49.000000 45.000000"
 preserveAspectRatio="xMidYMid meet">

<g transform="translate(0.000000,45.000000) scale(0.100000,-0.100000)"
fill="#000000" stroke="none">
<path d="M115 372 c-106 -65 -136 -98 -87 -96 22 1 22 -1 22 -121 0 -81 4
-125 12 -133 7 -7 42 -12 85 -12 l73 0 0 75 c0 68 2 75 20 75 18 0 20 -7 20
-75 l0 -75 80 0 c68 0 81 3 90 19 5 11 10 71 10 134 0 102 2 115 17 113 10 0
19 6 21 15 2 11 -31 36 -108 82 -62 37 -119 67 -128 67 -9 0 -66 -31 -127 -68z
m240 -42 l40 -26 0 -124 0 -125 -42 -3 -43 -3 0 63 c0 76 -6 87 -52 94 -61 10
-77 -6 -80 -84 l-3 -67 -42 -3 -43 -3 0 129 0 130 77 45 77 46 36 -21 c19 -12
53 -33 75 -48z"/>
</g>
</svg>
