<?xml version="1.0" standalone="no"?>
<!DOCTYPE svg PUBLIC "-//W3C//DTD SVG 20010904//EN"
 "http://www.w3.org/TR/2001/REC-SVG-20010904/DTD/svg10.dtd">
<svg version="1.0" xmlns="http://www.w3.org/2000/svg"
 width="40.000000pt" height="51.000000pt" viewBox="0 0 40.000000 51.000000"
 preserveAspectRatio="xMidYMid meet">

<g transform="translate(0.000000,51.000000) scale(0.100000,-0.100000)"
fill="#000000" stroke="none">
<path d="M160 450 c-58 -34 -115 -72 -127 -86 -28 -31 -30 -87 -5 -129 18 -29
18 -31 0 -60 -46 -76 0 -165 84 -165 63 1 245 110 271 163 21 42 17 83 -12
113 -16 18 -16 20 6 53 28 41 29 76 4 115 -48 72 -89 71 -221 -4z m172 -2 c33
-26 27 -84 -12 -106 -43 -25 -44 -40 -6 -63 36 -21 51 -61 35 -91 -13 -23
-209 -138 -236 -138 -31 0 -63 34 -63 65 0 24 42 75 61 75 21 0 7 31 -20 44
-31 16 -41 34 -41 71 0 28 10 36 119 102 88 52 133 64 163 41z"/>
<path d="M160 261 c0 -34 3 -61 6 -61 3 0 26 12 50 26 50 30 50 33 -18 73
l-38 23 0 -61z"/>
</g>
</svg>
