<?xml version="1.0" standalone="no"?>
<!DOCTYPE svg PUBLIC "-//W3C//DTD SVG 20010904//EN"
 "http://www.w3.org/TR/2001/REC-SVG-20010904/DTD/svg10.dtd">
<svg version="1.0" xmlns="http://www.w3.org/2000/svg"
 width="49.000000pt" height="47.000000pt" viewBox="0 0 49.000000 47.000000"
 preserveAspectRatio="xMidYMid meet">

<g transform="translate(0.000000,47.000000) scale(0.100000,-0.100000)"
fill="#000000" stroke="none">
<path d="M86 454 c-9 -8 -16 -17 -16 -20 0 -2 80 -4 178 -4 l177 1 -24 19
c-21 18 -39 20 -161 20 -113 0 -142 -3 -154 -16z"/>
<path d="M16 364 c-13 -13 -16 -42 -16 -165 0 -85 5 -159 10 -170 10 -18 23
-19 228 -19 156 0 221 3 230 12 17 17 17 329 0 346 -9 9 -73 12 -224 12 -180
0 -215 -2 -228 -16z m424 -169 l0 -145 -197 2 -198 3 -3 129 c-1 72 0 136 2
143 4 10 49 13 201 13 l195 0 0 -145z"/>
<path d="M200 196 l0 -77 48 27 c77 44 79 48 35 75 -21 12 -48 29 -60 37 l-23
14 0 -76z"/>
</g>
</svg>
