<?xml version="1.0" standalone="no"?>
<!DOCTYPE svg PUBLIC "-//W3C//DTD SVG 20010904//EN"
 "http://www.w3.org/TR/2001/REC-SVG-20010904/DTD/svg10.dtd">
<svg version="1.0" xmlns="http://www.w3.org/2000/svg"
 width="49.000000pt" height="49.000000pt" viewBox="0 0 49.000000 49.000000"
 preserveAspectRatio="xMidYMid meet">

<g transform="translate(0.000000,49.000000) scale(0.100000,-0.100000)"
fill="#000000" stroke="none">
<path d="M188 480 c-132 -33 -211 -166 -174 -294 19 -63 52 -107 110 -144 35
-23 52 -27 117 -27 67 0 81 3 124 30 125 77 153 251 58 356 -63 69 -152 99
-235 79z m136 -54 c43 -18 74 -51 98 -105 25 -54 20 -125 -13 -178 l-22 -35
-24 31 c-62 79 -174 81 -239 4 -26 -30 -40 -24 -60 23 -30 71 -10 180 42 225
55 48 150 64 218 35z m-7 -301 c19 -19 32 -39 28 -44 -19 -32 -150 -36 -190
-7 -37 27 26 85 94 86 25 0 42 -9 68 -35z"/>
<path d="M203 390 c-28 -12 -43 -40 -43 -84 0 -80 118 -107 155 -35 22 42 18
67 -14 100 -30 29 -58 35 -98 19z m66 -49 c25 -25 17 -59 -15 -67 -46 -12 -72
37 -38 70 20 21 30 20 53 -3z"/>
</g>
</svg>
